<svg width="56" height="56" viewBox="0 0 56 56" fill="none" xmlns="http://www.w3.org/2000/svg">
<g clip-path="url(#clip0_20_349)">
<path d="M21.4433 14.8167C16.6833 20.16 13.4166 27.8367 13.1133 28.56L4.66663 24.9434L14.1166 15.4934C15.2133 14.3967 16.8 13.9067 18.34 14.21L21.4433 14.8167ZM26.0633 39.6667C26.0633 39.6667 34.79 36.05 39.8066 31.0334C52.4066 18.4334 50.3066 8.58669 49.63 6.37003C47.4133 5.67003 37.5666 3.59336 24.9666 16.1934C19.95 21.21 16.3333 29.9367 16.3333 29.9367L26.0633 39.6667ZM41.1833 34.5567C35.84 39.3167 28.1633 42.5834 27.44 42.8867L31.0566 51.3334L40.5066 41.8834C41.6033 40.7867 42.0933 39.2 41.79 37.66L41.1833 34.5567ZM21 42C21 43.9367 20.2066 45.6867 18.9466 46.9467C16.1933 49.7 4.66663 51.3334 4.66663 51.3334C4.66663 51.3334 6.29996 39.8067 9.05329 37.0534C10.3133 35.7934 12.0633 35 14 35C17.8733 35 21 38.1267 21 42ZM30.3333 21C30.3333 18.4334 32.4333 16.3334 35 16.3334C37.5666 16.3334 39.6666 18.4334 39.6666 21C39.6666 23.5667 37.5666 25.6667 35 25.6667C32.4333 25.6667 30.3333 23.5667 30.3333 21Z" fill="#12B7B2"/>
</g>
<defs>
<clipPath id="clip0_20_349">
<rect width="56" height="56" fill="white"/>
</clipPath>
</defs>
</svg>
